<?xml version="1.0" standalone="no"?>
<!DOCTYPE svg PUBLIC "-//W3C//DTD SVG 20010904//EN"
 "http://www.w3.org/TR/2001/REC-SVG-20010904/DTD/svg10.dtd">
<svg version="1.0" xmlns="http://www.w3.org/2000/svg"
 width="600.000000pt" height="600.000000pt" viewBox="0 0 600.000000 600.000000"
 preserveAspectRatio="xMidYMid meet">

<g transform="translate(0.000000,600.000000) scale(0.100000,-0.100000)"
fill="#000000" stroke="none">
<path d="M2785 5309 c-350 -33 -698 -169 -914 -356 -42 -37 -43 -40 -51 -118
-27 -267 -18 -846 15 -1000 46 -217 156 -435 315 -630 179 -219 547 -516 774
-627 l44 -21 122 72 c67 40 183 119 258 176 426 322 678 679 747 1060 23 122
32 659 16 880 -12 160 -12 160 -44 193 -49 52 -212 156 -328 211 -187 88 -386
139 -624 161 -124 11 -200 11 -330 -1z m410 -354 c164 -48 316 -146 417 -269
77 -93 116 -164 156 -279 32 -92 36 -115 40 -234 8 -249 -60 -431 -226 -605
-70 -73 -77 -78 -116 -78 -73 1 -279 54 -309 80 -4 4 26 33 68 64 233 179 334
390 291 606 -24 118 -74 210 -160 296 -111 111 -240 164 -398 164 -149 0 -272
-54 -388 -170 -117 -116 -170 -246 -170 -412 0 -326 223 -574 635 -707 136
-44 318 -87 442 -103 59 -8 83 -16 83 -26 0 -17 -151 -168 -206 -205 l-41 -28
-121 26 c-655 138 -1050 506 -1079 1005 -14 248 66 464 235 642 129 135 283
219 459 253 115 22 274 13 388 -20z"/>
<path d="M772 2116 c-104 -26 -201 -83 -287 -170 -131 -132 -193 -293 -182
-471 22 -357 289 -621 746 -736 62 -16 122 -29 132 -29 21 0 131 108 126 123
-2 6 -32 16 -68 23 -35 7 -93 21 -129 30 l-65 17 72 22 c129 40 233 114 309
222 183 255 156 580 -66 804 -82 83 -175 136 -285 164 -71 18 -229 18 -303 1z
m222 -166 c90 -14 179 -61 244 -127 218 -221 156 -571 -125 -710 -75 -37 -80
-38 -187 -38 -107 0 -114 1 -187 36 -337 161 -345 631 -14 795 98 48 170 60
269 44z"/>
<path d="M3670 1540 c0 -555 1 -590 18 -590 39 0 97 24 124 50 l28 28 0 551 0
551 -85 0 -85 0 0 -590z"/>
<path d="M2942 1799 c-206 -40 -343 -226 -329 -448 15 -252 189 -412 435 -399
98 5 153 26 221 84 l41 36 0 -61 c0 -51 3 -61 18 -61 39 0 97 24 124 50 l28
28 0 376 0 376 -85 0 -85 0 0 -52 0 -52 -37 36 c-84 80 -206 112 -331 87z
m205 -174 c64 -27 104 -65 134 -129 80 -170 -24 -364 -206 -383 -126 -13 -247
65 -280 181 -39 133 21 273 140 327 50 23 161 25 212 4z"/>
<path d="M5048 1790 c-118 -35 -198 -168 -169 -278 18 -64 66 -110 191 -181
155 -89 180 -128 122 -192 -21 -24 -38 -32 -72 -36 -47 -4 -53 -2 -141 65 -41
32 -48 34 -111 30 -37 -2 -70 -6 -73 -10 -11 -10 44 -95 91 -143 68 -67 143
-100 229 -99 89 1 149 29 208 94 48 53 67 103 67 175 0 97 -62 167 -220 248
-65 33 -110 63 -119 79 -34 59 31 119 107 99 21 -6 49 -22 61 -35 l24 -25 48
42 c27 23 49 47 49 53 0 6 -20 30 -44 52 -65 60 -169 86 -248 62z"/>
<path d="M1710 1518 c0 -294 9 -359 61 -440 60 -93 161 -135 305 -126 84 5
134 24 193 73 l31 27 0 -51 c0 -42 3 -51 18 -51 37 0 91 22 116 46 l26 27 0
378 0 379 -85 0 -85 0 0 -247 c0 -140 -5 -264 -10 -285 -22 -79 -102 -137
-190 -138 -96 0 -151 33 -187 115 -14 34 -18 79 -21 298 l-4 257 -84 0 -84 0
0 -262z"/>
<path d="M3983 1768 c216 -548 297 -756 297 -764 0 -5 -29 -78 -65 -162 -36
-85 -65 -156 -65 -158 0 -8 49 -4 102 7 93 20 93 20 312 569 109 272 200 501
203 508 4 9 -18 12 -88 12 l-94 0 -104 -276 c-93 -245 -106 -273 -116 -252 -7
13 -54 137 -106 275 l-94 253 -94 0 c-70 0 -92 -3 -88 -12z"/>
<path d="M5542 1130 c-75 -70 -4 -192 93 -160 64 21 84 96 39 149 -21 26 -33
31 -68 31 -29 0 -49 -7 -64 -20z m121 -22 c25 -29 22 -74 -8 -103 -30 -30 -64
-32 -99 -4 -28 22 -35 64 -15 100 22 42 89 46 122 7z"/>
<path d="M5570 1060 c0 -27 5 -50 10 -50 6 0 10 9 10 20 0 25 8 25 28 0 16
-20 17 -19 19 30 l2 50 -34 0 -35 0 0 -50z m53 25 c1 -5 -6 -11 -15 -13 -11
-2 -18 3 -18 13 0 17 30 18 33 0z"/>
</g>
</svg>
